<svg width="24" height="24" viewBox="0 0 24 24" fill="none" xmlns="http://www.w3.org/2000/svg">
<mask id="mask0_376_497" style="mask-type:alpha" maskUnits="userSpaceOnUse" x="0" y="0" width="24" height="24">
<rect x="0.75" y="0.75" width="22.5" height="22.5" fill="#4D4D4D" stroke="#4D4D4D" stroke-width="1.5"/>
</mask>
<g mask="url(#mask0_376_497)">
<path d="M14.0099 22.6755L22.6729 14.0125C23.258 13.4274 23.2588 12.4792 22.6748 11.8931L12.192 1.37222C11.9106 1.08974 11.5282 0.930962 11.1294 0.930962L2.43224 0.930961C1.60385 0.930961 0.932285 1.60249 0.932243 2.43088L0.93179 11.2128C0.93177 11.6135 1.09209 11.9976 1.377 12.2793L11.8945 22.6813C12.4812 23.2616 13.4264 23.259 14.0099 22.6755Z" stroke="#5D5D5D" stroke-width="1.5"/>
</g>
<circle cx="8.25" cy="12.021" r="1.5" stroke="#5D5D5D" stroke-width="1.5"/>
<circle cx="15.75" cy="12.021" r="1.5" stroke="#5D5D5D" stroke-width="1.5"/>
<path d="M11.6082 7.51709L12.3926 16.4828" stroke="#5D5D5D" stroke-width="1.5" stroke-linecap="round"/>
</svg>
